<?xml version="1.0" encoding="utf-8" ?>
<svg baseProfile="tiny" height="186.951963934" version="1.2" width="323.341723334" xmlns="http://www.w3.org/2000/svg" xmlns:ev="http://www.w3.org/2001/xml-events" xmlns:xlink="http://www.w3.org/1999/xlink"><defs /><g id="paths" stroke="blue"><path d="M 4.893306967,182.058656967 L 182.058656967,182.058656967 L 182.058656967,4.893306967 L 4.893306967,4.893306967 L 4.893306967,182.058656967 Z" fill-opacity="0" stroke-linejoin="round" stroke-width="1.0" /></g><g fill="red" id="holes"><circle cx="16.0547" cy="15.5232" r="5.315" stroke-width="0.0" /><circle cx="171.4287" cy="15.5232" r="5.315" stroke-width="0.0" /><circle cx="171.4287" cy="171.4287" r="5.315" stroke-width="0.0" /><circle cx="15.5232" cy="171.4287" r="5.315" stroke-width="0.0" /><circle cx="115.6394" cy="43.976" r="1.6831" stroke-width="0.0" /><circle cx="115.6394" cy="61.976" r="1.6831" stroke-width="0.0" /><circle cx="115.6394" cy="70.976" r="1.6831" stroke-width="0.0" /><circle cx="115.6394" cy="79.976" r="1.6831" stroke-width="0.0" /><circle cx="115.6394" cy="151.976" r="1.6831" stroke-width="0.0" /><circle cx="106.6394" cy="151.976" r="1.6831" stroke-width="0.0" /><circle cx="97.6394" cy="151.976" r="1.6831" stroke-width="0.0" /><circle cx="88.6394" cy="151.976" r="1.6831" stroke-width="0.0" /><circle cx="79.6394" cy="151.976" r="1.6831" stroke-width="0.0" /><circle cx="70.6394" cy="34.976" r="1.6831" stroke-width="0.0" /><circle cx="70.6394" cy="43.976" r="1.6831" stroke-width="0.0" /><circle cx="70.6394" cy="52.976" r="1.6831" stroke-width="0.0" /><circle cx="70.6394" cy="61.976" r="1.6831" stroke-width="0.0" /><circle cx="70.6394" cy="70.976" r="1.6831" stroke-width="0.0" /><circle cx="70.6394" cy="79.976" r="1.6831" stroke-width="0.0" /><circle cx="70.6394" cy="88.976" r="1.6831" stroke-width="0.0" /><circle cx="70.6394" cy="97.976" r="1.6831" stroke-width="0.0" /><circle cx="70.6394" cy="106.976" r="1.6831" stroke-width="0.0" /><circle cx="70.6394" cy="115.976" r="1.6831" stroke-width="0.0" /><circle cx="70.6394" cy="124.976" r="1.6831" stroke-width="0.0" /><circle cx="70.6394" cy="133.976" r="1.6831" stroke-width="0.0" /><circle cx="70.6394" cy="142.976" r="1.6831" stroke-width="0.0" /><circle cx="70.6394" cy="151.976" r="1.6831" stroke-width="0.0" /><circle cx="124.6394" cy="151.976" r="1.6831" stroke-width="0.0" /><circle cx="124.6394" cy="142.976" r="1.6831" stroke-width="0.0" /><circle cx="124.6394" cy="133.976" r="1.6831" stroke-width="0.0" /><circle cx="124.6394" cy="124.976" r="1.6831" stroke-width="0.0" /><circle cx="124.6394" cy="115.976" r="1.6831" stroke-width="0.0" /><circle cx="124.6394" cy="106.976" r="1.6831" stroke-width="0.0" /><circle cx="124.6394" cy="97.976" r="1.6831" stroke-width="0.0" /><circle cx="124.6394" cy="88.976" r="1.6831" stroke-width="0.0" /><circle cx="124.6394" cy="79.976" r="1.6831" stroke-width="0.0" /><circle cx="124.6394" cy="70.976" r="1.6831" stroke-width="0.0" /><circle cx="124.6394" cy="61.976" r="1.6831" stroke-width="0.0" /><circle cx="124.6394" cy="52.976" r="1.6831" stroke-width="0.0" /><circle cx="124.6394" cy="43.976" r="1.6831" stroke-width="0.0" /><circle cx="124.6394" cy="34.976" r="1.6831" stroke-width="0.0" /><circle cx="32.974" cy="151.976" r="1.8602" stroke-width="0.0" /><circle cx="32.974" cy="142.976" r="1.8602" stroke-width="0.0" /><circle cx="32.974" cy="133.976" r="1.8602" stroke-width="0.0" /><circle cx="32.974" cy="124.976" r="1.8602" stroke-width="0.0" /><circle cx="32.974" cy="115.976" r="1.8602" stroke-width="0.0" /><circle cx="32.974" cy="106.976" r="1.8602" stroke-width="0.0" /><circle cx="32.974" cy="97.976" r="1.8602" stroke-width="0.0" /><circle cx="32.974" cy="88.976" r="1.8602" stroke-width="0.0" /><circle cx="32.974" cy="79.976" r="1.8602" stroke-width="0.0" /><circle cx="32.974" cy="70.976" r="1.8602" stroke-width="0.0" /><circle cx="32.974" cy="61.976" r="1.8602" stroke-width="0.0" /><circle cx="32.974" cy="52.976" r="1.8602" stroke-width="0.0" /><circle cx="32.974" cy="43.976" r="1.8602" stroke-width="0.0" /><circle cx="32.974" cy="34.976" r="1.8602" stroke-width="0.0" /><circle cx="93.9366" cy="24.0272" r="1.5945" stroke-width="0.0" /><circle cx="102.9366" cy="24.0272" r="1.5945" stroke-width="0.0" /><circle cx="15.8776" cy="88.9583" r="1.3287" stroke-width="0.0" /><circle cx="15.8776" cy="124.3913" r="1.3287" stroke-width="0.0" /><circle cx="156.2811" cy="61.8874" r="1.5059" stroke-width="0.0" /><circle cx="156.2811" cy="70.8874" r="1.5059" stroke-width="0.0" /><circle cx="156.2811" cy="79.8874" r="1.5059" stroke-width="0.0" /><circle cx="156.2811" cy="88.8874" r="1.5059" stroke-width="0.0" /><circle cx="156.2811" cy="97.8874" r="1.5059" stroke-width="0.0" /><circle cx="156.2811" cy="106.8874" r="1.5059" stroke-width="0.0" /><circle cx="156.2811" cy="115.8874" r="1.5059" stroke-width="0.0" /><circle cx="156.2811" cy="124.8874" r="1.5059" stroke-width="0.0" /><circle cx="104.5311" cy="117.3933" r="1.5945" stroke-width="0.0" /><circle cx="95.5311" cy="117.3933" r="1.5945" stroke-width="0.0" /></g><g id="rulers" stroke="black"><line stroke-width="1.0" x1="171.4287" x2="171.4287" y1="171.4287" y2="15.5232" /><text font-family="monospace" font-size="5" stroke-width="0.3" x="176.428735967" y="93.475981967">44.0000mm</text><text font-family="monospace" font-size="5" stroke-width="0.3" x="176.428735967" y="99.475981967">(Δy=44.0000mm)</text><line stroke-width="1.0" x1="15.5232" x2="171.4287" y1="171.4287" y2="171.4287" /><text font-family="monospace" font-size="5" stroke-width="0.3" x="93.475981967" y="176.428735967">44.0000mm</text><text font-family="monospace" font-size="5" stroke-width="0.3" x="93.475981967" y="182.428735967">(Δx=44.0000mm)</text><line stroke-width="1.0" x1="16.0547" x2="171.4287" y1="15.5232" y2="171.4287" /><text font-family="monospace" font-size="5" stroke-width="0.3" x="97.2832955036" y="89.9464899742">62.1194mm</text><text font-family="monospace" font-size="5" stroke-width="0.3" x="97.2832955036" y="95.9464899742">(Δx=43.8500mm, Δy=44.0000mm)</text><line stroke-width="1.0" x1="170.8972" x2="196.6748" y1="62.9504" y2="5.9563" /><text font-family="monospace" font-size="5" stroke-width="0.3" x="188.341723334" y="36.513821094">17.6537mm</text><text font-family="monospace" font-size="5" stroke-width="0.3" x="188.341723334" y="42.513821094">(Δx=7.2750mm, Δy=16.0850mm)</text></g></svg>