<?xml version="1.0" encoding="utf-8" ?>
<svg baseProfile="tiny" height="186.951963934" version="1.2" width="186.951963934" xmlns="http://www.w3.org/2000/svg" xmlns:ev="http://www.w3.org/2001/xml-events" xmlns:xlink="http://www.w3.org/1999/xlink"><defs /><g id="paths" stroke="green"><path d="M 4.893306967,182.058656967 L 182.058656967,182.058656967 L 182.058656967,4.893306967 L 4.893306967,4.893306967 L 4.893306967,182.058656967 Z" fill-opacity="0" stroke-linejoin="round" stroke-width="1.0" /></g><g fill="red" id="top_parts" stroke="red"><line stroke-linecap="round" stroke-width="0.5" x1="65.7673" x2="129.5114" y1="28.7043" y2="28.7043" /><line stroke-linecap="round" stroke-width="0.5" x1="129.5114" x2="129.5114" y1="28.7043" y2="158.2476" /><line stroke-linecap="round" stroke-width="0.5" x1="129.5114" x2="65.7673" y1="158.2476" y2="158.2476" /><line stroke-linecap="round" stroke-width="0.5" x1="65.7673" x2="65.7673" y1="158.2476" y2="28.7043" /><text font-family="monospace" font-size="2" stroke-width="0.1" text-anchor="middle" x="97.639367692" y="93.475981967">IC4</text><line stroke-linecap="round" stroke-width="0.5" x1="43.7457" x2="22.2024" y1="167.2476" y2="167.2476" /><line stroke-linecap="round" stroke-width="0.5" x1="22.2024" x2="22.2024" y1="167.2476" y2="19.7043" /><line stroke-linecap="round" stroke-width="0.5" x1="22.2024" x2="43.7457" y1="19.7043" y2="19.7043" /><line stroke-linecap="round" stroke-width="0.5" x1="43.7457" x2="43.7457" y1="19.7043" y2="167.2476" /><text font-family="monospace" font-size="2" stroke-width="0.1" text-anchor="middle" x="32.974014942" y="93.475981967">U2</text><line stroke-linecap="round" stroke-width="0.5" x1="87.665" x2="87.665" y1="31.6488" y2="16.4055" /><line stroke-linecap="round" stroke-width="0.5" x1="87.665" x2="109.2083" y1="16.4055" y2="16.4055" /><line stroke-linecap="round" stroke-width="0.5" x1="109.2083" x2="109.2083" y1="16.4055" y2="31.6488" /><line stroke-linecap="round" stroke-width="0.5" x1="109.2083" x2="87.665" y1="31.6488" y2="31.6488" /><text font-family="monospace" font-size="2" stroke-width="0.1" text-anchor="middle" x="98.436611767" y="24.027164767">U6</text><line stroke-linecap="round" stroke-width="0.5" x1="20.8382" x2="20.8382" y1="86.3894" y2="126.9602" /><line stroke-linecap="round" stroke-width="0.5" x1="20.8382" x2="10.9169" y1="126.9602" y2="126.9602" /><line stroke-linecap="round" stroke-width="0.5" x1="10.9169" x2="10.9169" y1="126.9602" y2="86.3894" /><line stroke-linecap="round" stroke-width="0.5" x1="10.9169" x2="20.8382" y1="86.3894" y2="86.3894" /><text font-family="monospace" font-size="2" stroke-width="0.1" text-anchor="middle" x="15.877558667" y="106.674800542">R1</text><line stroke-linecap="round" stroke-width="0.5" x1="148.6594" x2="163.9028" y1="47.6957" y2="47.6957" /><line stroke-linecap="round" stroke-width="0.5" x1="163.9028" x2="163.9028" y1="47.6957" y2="139.0791" /><line stroke-linecap="round" stroke-width="0.5" x1="163.9028" x2="148.6594" y1="139.0791" y2="139.0791" /><line stroke-linecap="round" stroke-width="0.5" x1="148.6594" x2="148.6594" y1="139.0791" y2="47.6957" /><text font-family="monospace" font-size="2" stroke-width="0.1" text-anchor="middle" x="156.281098542" y="93.387399292">U1</text><line stroke-linecap="round" stroke-width="0.5" x1="109.3854" x2="109.3854" y1="72.0354" y2="87.2787" /><line stroke-linecap="round" stroke-width="0.5" x1="109.3854" x2="87.8421" y1="87.2787" y2="87.2787" /><line stroke-linecap="round" stroke-width="0.5" x1="87.8421" x2="87.8421" y1="87.2787" y2="72.0354" /><line stroke-linecap="round" stroke-width="0.5" x1="87.8421" x2="109.3854" y1="72.0354" y2="72.0354" /><text font-family="monospace" font-size="2" stroke-width="0.1" text-anchor="middle" x="98.613777117" y="79.657084667">U5</text></g><g fill="blue" id="bottom_parts" stroke="blue" /></svg>