<?xml version='1.0' encoding='UTF-8' standalone='no'?>
<svg xmlns="http://www.w3.org/2000/svg" width="882.5" height="846" x="0" y="0"><text x="225.5" y="208" font-size="10" font-family="sans-serif" text-anchor="middle" alignment-baseline="middle">3V3</text><text x="540.5" y="578" font-size="10" font-family="sans-serif" text-anchor="middle" alignment-baseline="middle">CLK</text><text x="235.5" y="198" font-size="10" font-family="sans-serif" text-anchor="middle" alignment-baseline="middle">GND</text><text x="570.5" y="58" font-size="10" font-family="sans-serif" text-anchor="middle" alignment-baseline="middle">GND2</text><text x="520.5" y="658" font-size="10" font-family="sans-serif" text-anchor="middle" alignment-baseline="middle">SDI</text><text x="530.5" y="518" font-size="10" font-family="sans-serif" text-anchor="middle" alignment-baseline="middle">SDO</text><text x="60.5" y="243" font-size="10" font-family="sans-serif" text-anchor="start" alignment-baseline="hanging">MAX31865</text><text x="110.5" y="793" font-size="10" font-family="sans-serif" text-anchor="start" alignment-baseline="hanging">ili9341</text><text x="120.5" y="473" font-size="10" font-family="sans-serif" text-anchor="start" alignment-baseline="hanging">U2A</text><text x="520.5" y="488" font-size="10" font-family="sans-serif" text-anchor="end" alignment-baseline="hanging">IC4</text><text x="553.5" y="27" font-size="10" font-family="sans-serif" text-anchor="start" alignment-baseline="alphabetic" transform="rotate(270 553.5 27)">U5</text><text x="270.5" y="633" font-size="10" font-family="sans-serif" text-anchor="start" alignment-baseline="hanging">100Ω</text><text x="500.5" y="123" font-size="10" font-family="sans-serif" text-anchor="end" alignment-baseline="hanging">Teensy 3.1</text><text x="270.5" y="603" font-size="10" font-family="sans-serif" text-anchor="start" alignment-baseline="hanging">R1</text><text x="646.5" y="826" font-size="10" font-family="sans-serif" text-anchor="start" alignment-baseline="hanging">U6</text><text x="60.5" y="123" font-size="10" font-family="sans-serif" text-anchor="start" alignment-baseline="hanging">U1</text><text x="300.5" y="379" font-size="10" font-family="sans serif" text-anchor="start" alignment-baseline="hanging"></text><text x="386.5" y="265" font-size="10" font-family="sans serif" text-anchor="start" alignment-baseline="alphabetic" transform="rotate(90 386.5 265)"></text><text x="300.5" y="499" font-size="10" font-family="sans serif" text-anchor="start" alignment-baseline="hanging"></text><text x="501.5" y="379" font-size="10" font-family="sans serif" text-anchor="end" alignment-baseline="hanging"></text><text x="300.5" y="459" font-size="10" font-family="sans serif" text-anchor="start" alignment-baseline="hanging"></text><text x="346.5" y="265" font-size="10" font-family="sans serif" text-anchor="start" alignment-baseline="alphabetic" transform="rotate(90 346.5 265)"></text><text x="426.5" y="265" font-size="10" font-family="sans serif" text-anchor="start" alignment-baseline="alphabetic" transform="rotate(90 426.5 265)"></text><text x="501.5" y="499" font-size="10" font-family="sans serif" text-anchor="end" alignment-baseline="hanging"></text><text x="501.5" y="479" font-size="10" font-family="sans serif" text-anchor="end" alignment-baseline="hanging"></text><text x="406.5" y="265" font-size="10" font-family="sans serif" text-anchor="start" alignment-baseline="alphabetic" transform="rotate(90 406.5 265)"></text><text x="300.5" y="359" font-size="10" font-family="sans serif" text-anchor="start" alignment-baseline="hanging"></text><text x="501.5" y="459" font-size="10" font-family="sans serif" text-anchor="end" alignment-baseline="hanging"></text><text x="300.5" y="519" font-size="10" font-family="sans serif" text-anchor="start" alignment-baseline="hanging"></text><text x="300.5" y="439" font-size="10" font-family="sans serif" text-anchor="start" alignment-baseline="hanging"></text><text x="501.5" y="319" font-size="10" font-family="sans serif" text-anchor="end" alignment-baseline="hanging"></text><text x="300.5" y="419" font-size="10" font-family="sans serif" text-anchor="start" alignment-baseline="hanging"></text><text x="300.5" y="319" font-size="10" font-family="sans serif" text-anchor="start" alignment-baseline="hanging"></text><text x="501.5" y="399" font-size="10" font-family="sans serif" text-anchor="end" alignment-baseline="hanging"></text><text x="501.5" y="419" font-size="10" font-family="sans serif" text-anchor="end" alignment-baseline="hanging"></text><text x="366.5" y="265" font-size="10" font-family="sans serif" text-anchor="start" alignment-baseline="alphabetic" transform="rotate(90 366.5 265)"></text><text x="501.5" y="339" font-size="10" font-family="sans serif" text-anchor="end" alignment-baseline="hanging"></text><text x="501.5" y="359" font-size="10" font-family="sans serif" text-anchor="end" alignment-baseline="hanging"></text><text x="501.5" y="439" font-size="10" font-family="sans serif" text-anchor="end" alignment-baseline="hanging"></text><text x="300.5" y="339" font-size="10" font-family="sans serif" text-anchor="start" alignment-baseline="hanging"></text><text x="300.5" y="479" font-size="10" font-family="sans serif" text-anchor="start" alignment-baseline="hanging"></text><text x="300.5" y="299" font-size="10" font-family="sans serif" text-anchor="start" alignment-baseline="hanging"></text><text x="300.5" y="399" font-size="10" font-family="sans serif" text-anchor="start" alignment-baseline="hanging"></text><text x="501.5" y="299" font-size="10" font-family="sans serif" text-anchor="end" alignment-baseline="hanging"></text><text x="501.5" y="519" font-size="10" font-family="sans serif" text-anchor="end" alignment-baseline="hanging"></text><rect width="211" height="332" x="690.5" y="474" transform="rotate(180 690.5,474)" style="stroke: #000; stroke-width: 1; fill: none;"></rect><line x1="600.5" y1="483" x2="600.5" y2="474" stroke-width="2" stroke="black"></line><text x="600.5" y="469" font-size="10" font-family="sans-serif" text-anchor="start" alignment-baseline="middle" transform="rotate(270 600.5 469)">GND</text><line x1="700.5" y1="453" x2="690.5" y2="453" stroke-width="2" stroke="black"></line><text x="685.5" y="453" font-size="10" font-family="sans-serif" text-anchor="end" alignment-baseline="middle">0</text><line x1="700.5" y1="433" x2="690.5" y2="433" stroke-width="2" stroke="black"></line><text x="685.5" y="433" font-size="10" font-family="sans-serif" text-anchor="end" alignment-baseline="middle">1</text><line x1="700.5" y1="413" x2="690.5" y2="413" stroke-width="2" stroke="black"></line><text x="685.5" y="413" font-size="10" font-family="sans-serif" text-anchor="end" alignment-baseline="middle">2</text><line x1="700.5" y1="393" x2="690.5" y2="393" stroke-width="2" stroke="black"></line><text x="685.5" y="393" font-size="10" font-family="sans-serif" text-anchor="end" alignment-baseline="middle">3 ~</text><line x1="700.5" y1="373" x2="690.5" y2="373" stroke-width="2" stroke="black"></line><text x="685.5" y="373" font-size="10" font-family="sans-serif" text-anchor="end" alignment-baseline="middle">4 ~</text><line x1="700.5" y1="353" x2="690.5" y2="353" stroke-width="2" stroke="black"></line><text x="685.5" y="353" font-size="10" font-family="sans-serif" text-anchor="end" alignment-baseline="middle">5 ~</text><line x1="700.5" y1="333" x2="690.5" y2="333" stroke-width="2" stroke="black"></line><text x="685.5" y="333" font-size="10" font-family="sans-serif" text-anchor="end" alignment-baseline="middle">6 ~</text><line x1="700.5" y1="313" x2="690.5" y2="313" stroke-width="2" stroke="black"></line><text x="685.5" y="313" font-size="10" font-family="sans-serif" text-anchor="end" alignment-baseline="middle">7</text><line x1="700.5" y1="293" x2="690.5" y2="293" stroke-width="2" stroke="black"></line><text x="685.5" y="293" font-size="10" font-family="sans-serif" text-anchor="end" alignment-baseline="middle">8</text><line x1="700.5" y1="273" x2="690.5" y2="273" stroke-width="2" stroke="black"></line><text x="685.5" y="273" font-size="10" font-family="sans-serif" text-anchor="end" alignment-baseline="middle">9 ~</text><line x1="700.5" y1="253" x2="690.5" y2="253" stroke-width="2" stroke="black"></line><text x="685.5" y="253" font-size="10" font-family="sans-serif" text-anchor="end" alignment-baseline="middle">10 ~</text><line x1="700.5" y1="233" x2="690.5" y2="233" stroke-width="2" stroke="black"></line><text x="685.5" y="233" font-size="10" font-family="sans-serif" text-anchor="end" alignment-baseline="middle">11</text><line x1="700.5" y1="213" x2="690.5" y2="213" stroke-width="2" stroke="black"></line><text x="685.5" y="213" font-size="10" font-family="sans-serif" text-anchor="end" alignment-baseline="middle">12</text><line x1="700.5" y1="193" x2="690.5" y2="193" stroke-width="2" stroke="black"></line><text x="685.5" y="193" font-size="10" font-family="sans-serif" text-anchor="end" alignment-baseline="middle">13 (LED)</text><line x1="470.5" y1="163" x2="479.5" y2="163" stroke-width="2" stroke="black"></line><text x="484.5" y="163" font-size="10" font-family="sans-serif" text-anchor="start" alignment-baseline="middle">A0</text><line x1="470.5" y1="183" x2="479.5" y2="183" stroke-width="2" stroke="black"></line><text x="484.5" y="183" font-size="10" font-family="sans-serif" text-anchor="start" alignment-baseline="middle">A1</text><line x1="470.5" y1="203" x2="479.5" y2="203" stroke-width="2" stroke="black"></line><text x="484.5" y="203" font-size="10" font-family="sans-serif" text-anchor="start" alignment-baseline="middle">A2</text><line x1="470.5" y1="223" x2="479.5" y2="223" stroke-width="2" stroke="black"></line><text x="484.5" y="223" font-size="10" font-family="sans-serif" text-anchor="start" alignment-baseline="middle">A3</text><line x1="470.5" y1="243" x2="479.5" y2="243" stroke-width="2" stroke="black"></line><text x="484.5" y="243" font-size="10" font-family="sans-serif" text-anchor="start" alignment-baseline="middle">A4</text><line x1="470.5" y1="263" x2="479.5" y2="263" stroke-width="2" stroke="black"></line><text x="484.5" y="263" font-size="10" font-family="sans-serif" text-anchor="start" alignment-baseline="middle">A5</text><line x1="470.5" y1="283" x2="479.5" y2="283" stroke-width="2" stroke="black"></line><text x="484.5" y="283" font-size="10" font-family="sans-serif" text-anchor="start" alignment-baseline="middle">A6 ~</text><line x1="470.5" y1="303" x2="479.5" y2="303" stroke-width="2" stroke="black"></line><text x="484.5" y="303" font-size="10" font-family="sans-serif" text-anchor="start" alignment-baseline="middle">A7 ~</text><line x1="470.5" y1="323" x2="479.5" y2="323" stroke-width="2" stroke="black"></line><text x="484.5" y="323" font-size="10" font-family="sans-serif" text-anchor="start" alignment-baseline="middle">A8 ~</text><line x1="470.5" y1="343" x2="479.5" y2="343" stroke-width="2" stroke="black"></line><text x="484.5" y="343" font-size="10" font-family="sans-serif" text-anchor="start" alignment-baseline="middle">A9 ~</text><line x1="470.5" y1="453" x2="479.5" y2="453" stroke-width="2" stroke="black"></line><text x="484.5" y="453" font-size="10" font-family="sans-serif" text-anchor="start" alignment-baseline="middle">3.3V</text><line x1="470.5" y1="403" x2="479.5" y2="403" stroke-width="2" stroke="black"></line><text x="484.5" y="403" font-size="10" font-family="sans-serif" text-anchor="start" alignment-baseline="middle">AGND</text><line x1="570.5" y1="483" x2="570.5" y2="474" stroke-width="2" stroke="black"></line><text x="570.5" y="469" font-size="10" font-family="sans-serif" text-anchor="start" alignment-baseline="middle" transform="rotate(270 570.5 469)">Vin</text><line x1="610.5" y1="133" x2="610.5" y2="142" stroke-width="2" stroke="black"></line><text x="610.5" y="147" font-size="10" font-family="sans-serif" text-anchor="end" alignment-baseline="middle" transform="rotate(270 610.5 147)">VBat</text><line x1="670.5" y1="133" x2="670.5" y2="142" stroke-width="2" stroke="black"></line><text x="670.5" y="147" font-size="10" font-family="sans-serif" text-anchor="end" alignment-baseline="middle" transform="rotate(270 670.5 147)">3.3v</text><line x1="640.5" y1="133" x2="640.5" y2="142" stroke-width="2" stroke="black"></line><text x="640.5" y="147" font-size="10" font-family="sans-serif" text-anchor="end" alignment-baseline="middle" transform="rotate(270 640.5 147)">GND</text><line x1="550.5" y1="133" x2="550.5" y2="142" stroke-width="2" stroke="black"></line><text x="550.5" y="147" font-size="10" font-family="sans-serif" text-anchor="end" alignment-baseline="middle" transform="rotate(270 550.5 147)">Program</text><line x1="530.5" y1="133" x2="530.5" y2="142" stroke-width="2" stroke="black"></line><text x="530.5" y="147" font-size="10" font-family="sans-serif" text-anchor="end" alignment-baseline="middle" transform="rotate(270 530.5 147)">A14 (DAC)</text><line x1="470.5" y1="383" x2="479.5" y2="383" stroke-width="2" stroke="black"></line><text x="484.5" y="383" font-size="10" font-family="sans-serif" text-anchor="start" alignment-baseline="middle">A11</text><line x1="470.5" y1="363" x2="479.5" y2="363" stroke-width="2" stroke="black"></line><text x="484.5" y="363" font-size="10" font-family="sans-serif" text-anchor="start" alignment-baseline="middle">A10</text><line x1="470.5" y1="423" x2="479.5" y2="423" stroke-width="2" stroke="black"></line><text x="484.5" y="423" font-size="10" font-family="sans-serif" text-anchor="start" alignment-baseline="middle">AREF</text><line x1="640.5" y1="483" x2="640.5" y2="474" stroke-width="2" stroke="black"></line><text x="640.5" y="469" font-size="10" font-family="sans-serif" text-anchor="start" alignment-baseline="middle" transform="rotate(270 640.5 469)">VUSB</text><rect width="140" height="360" x="60.5" y="453" style="stroke: #000; stroke-width: 1; fill: none;"></rect><line x1="210.5" y1="503" x2="200.5" y2="503" stroke-width="2" stroke="black"></line><line x1="210.5" y1="523" x2="200.5" y2="523" stroke-width="2" stroke="black"></line><line x1="210.5" y1="543" x2="200.5" y2="543" stroke-width="2" stroke="black"></line><line x1="210.5" y1="563" x2="200.5" y2="563" stroke-width="2" stroke="black"></line><line x1="210.5" y1="583" x2="200.5" y2="583" stroke-width="2" stroke="black"></line><line x1="210.5" y1="603" x2="200.5" y2="603" stroke-width="2" stroke="black"></line><line x1="210.5" y1="623" x2="200.5" y2="623" stroke-width="2" stroke="black"></line><line x1="210.5" y1="643" x2="200.5" y2="643" stroke-width="2" stroke="black"></line><line x1="210.5" y1="663" x2="200.5" y2="663" stroke-width="2" stroke="black"></line><line x1="210.5" y1="683" x2="200.5" y2="683" stroke-width="2" stroke="black"></line><line x1="210.5" y1="703" x2="200.5" y2="703" stroke-width="2" stroke="black"></line><line x1="210.5" y1="723" x2="200.5" y2="723" stroke-width="2" stroke="black"></line><line x1="210.5" y1="743" x2="200.5" y2="743" stroke-width="2" stroke="black"></line><line x1="210.5" y1="763" x2="200.5" y2="763" stroke-width="2" stroke="black"></line><text x="198.5" y="763" font-size="10" font-family="sans-serif" text-anchor="end" alignment-baseline="middle">VCC</text><text x="198.5" y="723" font-size="10" font-family="sans-serif" text-anchor="end" alignment-baseline="middle">C/S</text><text x="198.5" y="683" font-size="10" font-family="sans-serif" text-anchor="end" alignment-baseline="middle">D/C</text><text x="198.5" y="643" font-size="10" font-family="sans-serif" text-anchor="end" alignment-baseline="middle">SCK</text><text x="198.5" y="603" font-size="10" font-family="sans-serif" text-anchor="end" alignment-baseline="middle">SDO</text><text x="198.5" y="563" font-size="10" font-family="sans-serif" text-anchor="end" alignment-baseline="middle">T_CS</text><text x="198.5" y="523" font-size="10" font-family="sans-serif" text-anchor="end" alignment-baseline="middle">T_DO</text><text x="198.5" y="743" font-size="10" font-family="sans-serif" text-anchor="end" alignment-baseline="middle">GND</text><text x="198.5" y="703" font-size="10" font-family="sans-serif" text-anchor="end" alignment-baseline="middle">Reset</text><text x="198.5" y="663" font-size="10" font-family="sans-serif" text-anchor="end" alignment-baseline="middle">SDI</text><text x="198.5" y="623" font-size="10" font-family="sans-serif" text-anchor="end" alignment-baseline="middle">LED</text><text x="198.5" y="583" font-size="10" font-family="sans-serif" text-anchor="end" alignment-baseline="middle">T_CLK</text><text x="198.5" y="543" font-size="10" font-family="sans-serif" text-anchor="end" alignment-baseline="middle">T_DIN</text><text x="198.5" y="503" font-size="10" font-family="sans-serif" text-anchor="end" alignment-baseline="middle">T_IRQ</text><rect width="18" height="35" x="505.5" y="28" transform="rotate(270 505.5,28)" style="stroke: #000; stroke-width: 1; fill: none;"></rect><line x1="510.5" y1="33" x2="510.5" y2="28" stroke-width="2" stroke="black"></line><text x="510.5" y="23" font-size="10" font-family="sans-serif" text-anchor="start" alignment-baseline="middle" transform="rotate(270 510.5 23)">1</text><line x1="530.5" y1="33" x2="530.5" y2="28" stroke-width="2" stroke="black"></line><text x="530.5" y="23" font-size="10" font-family="sans-serif" text-anchor="start" alignment-baseline="middle" transform="rotate(270 530.5 23)">2</text><line x1="270.5" y1="623" x2="273.5" y2="618" stroke-width="2" stroke="black"></line><line x1="273.5" y1="618" x2="278.5" y2="628" stroke-width="2" stroke="black"></line><line x1="278.5" y1="628" x2="283.5" y2="618" stroke-width="2" stroke="black"></line><line x1="283.5" y1="618" x2="288.5" y2="628" stroke-width="2" stroke="black"></line><line x1="288.5" y1="628" x2="293.5" y2="618" stroke-width="2" stroke="black"></line><line x1="293.5" y1="618" x2="298.5" y2="628" stroke-width="2" stroke="black"></line><line x1="298.5" y1="628" x2="300.5" y2="623" stroke-width="2" stroke="black"></line><line x1="260.5" y1="623" x2="270.5" y2="623" stroke-width="2" stroke="black"></line><line x1="300.5" y1="623" x2="310.5" y2="623" stroke-width="2" stroke="black"></line><rect width="90" height="90" x="10.5" y="133" style="stroke: #000; stroke-width: 1; fill: none;"></rect><line x1="110.5" y1="143" x2="100.5" y2="143" stroke-width="2" stroke="black"></line><text x="98.5" y="203" font-size="10" font-family="sans-serif" text-anchor="end" alignment-baseline="middle">GND</text><line x1="110.5" y1="153" x2="100.5" y2="153" stroke-width="2" stroke="black"></line><line x1="110.5" y1="163" x2="100.5" y2="163" stroke-width="2" stroke="black"></line><text x="98.5" y="183" font-size="10" font-family="sans-serif" text-anchor="end" alignment-baseline="middle">CLK</text><line x1="110.5" y1="173" x2="100.5" y2="173" stroke-width="2" stroke="black"></line><line x1="110.5" y1="183" x2="100.5" y2="183" stroke-width="2" stroke="black"></line><line x1="110.5" y1="193" x2="100.5" y2="193" stroke-width="2" stroke="black"></line><text x="98.5" y="193" font-size="10" font-family="sans-serif" text-anchor="end" alignment-baseline="middle">3V3</text><line x1="110.5" y1="203" x2="100.5" y2="203" stroke-width="2" stroke="black"></line><text x="98.5" y="173" font-size="10" font-family="sans-serif" text-anchor="end" alignment-baseline="middle">SDO</text><line x1="110.5" y1="213" x2="100.5" y2="213" stroke-width="2" stroke="black"></line><text x="98.5" y="213" font-size="10" font-family="sans-serif" text-anchor="end" alignment-baseline="middle">Vin</text><text x="98.5" y="163" font-size="10" font-family="sans-serif" text-anchor="end" alignment-baseline="middle">SDI</text><text x="98.5" y="143" font-size="10" font-family="sans-serif" text-anchor="end" alignment-baseline="middle">RDY</text><text x="98.5" y="153" font-size="10" font-family="sans-serif" text-anchor="end" alignment-baseline="middle">C/S</text><rect width="10" height="30" x="20.5" y="163" style="stroke: #000; stroke-width: 1; fill: none;"></rect><circle cx="19.5" cy="213" r="6" style="stroke: #000; stroke-width: 1; fill: none;"></circle><circle cx="19.5" cy="142" r="6" style="stroke: #000; stroke-width: 1; fill: none;"></circle><rect width="18" height="35" x="645.5" y="778" style="stroke: #000; stroke-width: 1; fill: none;"></rect><line x1="640.5" y1="783" x2="645.5" y2="783" stroke-width="2" stroke="black"></line><text x="650.5" y="783" font-size="10" font-family="sans-serif" text-anchor="start" alignment-baseline="middle">1</text><line x1="640.5" y1="803" x2="645.5" y2="803" stroke-width="2" stroke="black"></line><text x="650.5" y="803" font-size="10" font-family="sans-serif" text-anchor="start" alignment-baseline="middle">2</text><circle cx="360.5" cy="743" r="2" style="stroke: #000; stroke-width: 1; fill: none;"></circle><circle cx="600.5" cy="743" r="2" style="stroke: #000; stroke-width: 1; fill: none;"></circle><circle cx="770.5" cy="233" r="2" style="stroke: #000; stroke-width: 1; fill: none;"></circle><circle cx="750.5" cy="213" r="2" style="stroke: #000; stroke-width: 1; fill: none;"></circle><circle cx="870.5" cy="583" r="2" style="stroke: #000; stroke-width: 1; fill: none;"></circle><circle cx="340.5" cy="703" r="2" style="stroke: #000; stroke-width: 1; fill: none;"></circle><circle cx="850.5" cy="523" r="2" style="stroke: #000; stroke-width: 1; fill: none;"></circle><circle cx="830.5" cy="543" r="2" style="stroke: #000; stroke-width: 1; fill: none;"></circle><circle cx="340.5" cy="453" r="2" style="stroke: #000; stroke-width: 1; fill: none;"></circle><circle cx="340.5" cy="623" r="2" style="stroke: #000; stroke-width: 1; fill: none;"></circle><circle cx="730.5" cy="193" r="2" style="stroke: #000; stroke-width: 1; fill: none;"></circle><line x1="600.5" y1="743" x2="600.5" y2="483" stroke-width="2" stroke="black"></line><line x1="600.5" y1="743" x2="360.5" y2="743" stroke-width="2" stroke="black"></line><line x1="750.5" y1="213" x2="850.5" y2="213" stroke-width="2" stroke="black"></line><line x1="810.5" y1="723" x2="810.5" y2="713" stroke-width="2" stroke="black"></line><line x1="530.5" y1="63" x2="610.5" y2="63" stroke-width="2" stroke="black"></line><line x1="530.5" y1="63" x2="530.5" y2="33" stroke-width="2" stroke="black"></line><line x1="790.5" y1="683" x2="790.5" y2="273" stroke-width="2" stroke="black"></line><line x1="210.5" y1="663" x2="830.5" y2="663" stroke-width="2" stroke="black"></line><line x1="470.5" y1="263" x2="290.5" y2="263" stroke-width="2" stroke="black"></line><line x1="570.5" y1="483" x2="570.5" y2="803" stroke-width="2" stroke="black"></line><line x1="340.5" y1="213" x2="110.5" y2="213" stroke-width="2" stroke="black"></line><line x1="770.5" y1="563" x2="210.5" y2="563" stroke-width="2" stroke="black"></line><line x1="810.5" y1="253" x2="700.5" y2="253" stroke-width="2" stroke="black"></line><line x1="810.5" y1="253" x2="810.5" y2="713" stroke-width="2" stroke="black"></line><line x1="510.5" y1="63" x2="470.5" y2="63" stroke-width="2" stroke="black"></line><line x1="510.5" y1="63" x2="510.5" y2="33" stroke-width="2" stroke="black"></line><line x1="700.5" y1="233" x2="770.5" y2="233" stroke-width="2" stroke="black"></line><line x1="110.5" y1="183" x2="410.5" y2="183" stroke-width="2" stroke="black"></line><line x1="870.5" y1="553" x2="870.5" y2="583" stroke-width="2" stroke="black"></line><line x1="210.5" y1="583" x2="870.5" y2="583" stroke-width="2" stroke="black"></line><line x1="290.5" y1="153" x2="290.5" y2="263" stroke-width="2" stroke="black"></line><line x1="700.5" y1="213" x2="750.5" y2="213" stroke-width="2" stroke="black"></line><line x1="770.5" y1="83" x2="370.5" y2="83" stroke-width="2" stroke="black"></line><line x1="770.5" y1="83" x2="770.5" y2="233" stroke-width="2" stroke="black"></line><line x1="390.5" y1="173" x2="110.5" y2="173" stroke-width="2" stroke="black"></line><line x1="110.5" y1="153" x2="290.5" y2="153" stroke-width="2" stroke="black"></line><line x1="770.5" y1="293" x2="770.5" y2="563" stroke-width="2" stroke="black"></line><line x1="770.5" y1="293" x2="700.5" y2="293" stroke-width="2" stroke="black"></line><line x1="340.5" y1="703" x2="340.5" y2="763" stroke-width="2" stroke="black"></line><line x1="340.5" y1="703" x2="210.5" y2="703" stroke-width="2" stroke="black"></line><line x1="600.5" y1="783" x2="600.5" y2="743" stroke-width="2" stroke="black"></line><line x1="600.5" y1="783" x2="640.5" y2="783" stroke-width="2" stroke="black"></line><line x1="640.5" y1="803" x2="570.5" y2="803" stroke-width="2" stroke="black"></line><line x1="360.5" y1="203" x2="360.5" y2="323" stroke-width="2" stroke="black"></line><line x1="110.5" y1="203" x2="360.5" y2="203" stroke-width="2" stroke="black"></line><line x1="390.5" y1="103" x2="390.5" y2="173" stroke-width="2" stroke="black"></line><line x1="210.5" y1="603" x2="850.5" y2="603" stroke-width="2" stroke="black"></line><line x1="750.5" y1="103" x2="390.5" y2="103" stroke-width="2" stroke="black"></line><line x1="750.5" y1="103" x2="750.5" y2="213" stroke-width="2" stroke="black"></line><line x1="830.5" y1="233" x2="770.5" y2="233" stroke-width="2" stroke="black"></line><line x1="360.5" y1="443" x2="360.5" y2="743" stroke-width="2" stroke="black"></line><line x1="360.5" y1="443" x2="360.5" y2="323" stroke-width="2" stroke="black"></line><line x1="420.5" y1="63" x2="470.5" y2="63" stroke-width="2" stroke="black"></line><line x1="640.5" y1="63" x2="610.5" y2="63" stroke-width="2" stroke="black"></line><line x1="850.5" y1="523" x2="850.5" y2="213" stroke-width="2" stroke="black"></line><line x1="850.5" y1="523" x2="850.5" y2="603" stroke-width="2" stroke="black"></line><line x1="850.5" y1="523" x2="210.5" y2="523" stroke-width="2" stroke="black"></line><line x1="370.5" y1="163" x2="110.5" y2="163" stroke-width="2" stroke="black"></line><line x1="370.5" y1="163" x2="370.5" y2="83" stroke-width="2" stroke="black"></line><line x1="700.5" y1="273" x2="790.5" y2="273" stroke-width="2" stroke="black"></line><line x1="870.5" y1="643" x2="210.5" y2="643" stroke-width="2" stroke="black"></line><line x1="870.5" y1="643" x2="870.5" y2="583" stroke-width="2" stroke="black"></line><line x1="410.5" y1="123" x2="410.5" y2="183" stroke-width="2" stroke="black"></line><line x1="410.5" y1="123" x2="730.5" y2="123" stroke-width="2" stroke="black"></line><line x1="830.5" y1="543" x2="830.5" y2="233" stroke-width="2" stroke="black"></line><line x1="830.5" y1="543" x2="830.5" y2="663" stroke-width="2" stroke="black"></line><line x1="220.5" y1="503" x2="750.5" y2="503" stroke-width="2" stroke="black"></line><line x1="220.5" y1="503" x2="210.5" y2="503" stroke-width="2" stroke="black"></line><line x1="340.5" y1="453" x2="470.5" y2="453" stroke-width="2" stroke="black"></line><line x1="340.5" y1="453" x2="340.5" y2="213" stroke-width="2" stroke="black"></line><line x1="870.5" y1="193" x2="870.5" y2="553" stroke-width="2" stroke="black"></line><line x1="210.5" y1="763" x2="340.5" y2="763" stroke-width="2" stroke="black"></line><line x1="210.5" y1="543" x2="830.5" y2="543" stroke-width="2" stroke="black"></line><line x1="420.5" y1="203" x2="470.5" y2="203" stroke-width="2" stroke="black"></line><line x1="420.5" y1="203" x2="420.5" y2="63" stroke-width="2" stroke="black"></line><line x1="210.5" y1="743" x2="360.5" y2="743" stroke-width="2" stroke="black"></line><line x1="750.5" y1="413" x2="750.5" y2="503" stroke-width="2" stroke="black"></line><line x1="750.5" y1="413" x2="700.5" y2="413" stroke-width="2" stroke="black"></line><line x1="640.5" y1="133" x2="640.5" y2="63" stroke-width="2" stroke="black"></line><line x1="340.5" y1="623" x2="340.5" y2="703" stroke-width="2" stroke="black"></line><line x1="340.5" y1="623" x2="310.5" y2="623" stroke-width="2" stroke="black"></line><line x1="340.5" y1="623" x2="340.5" y2="453" stroke-width="2" stroke="black"></line><line x1="730.5" y1="193" x2="870.5" y2="193" stroke-width="2" stroke="black"></line><line x1="730.5" y1="193" x2="700.5" y2="193" stroke-width="2" stroke="black"></line><line x1="730.5" y1="193" x2="730.5" y2="123" stroke-width="2" stroke="black"></line><line x1="210.5" y1="723" x2="810.5" y2="723" stroke-width="2" stroke="black"></line><line x1="210.5" y1="683" x2="790.5" y2="683" stroke-width="2" stroke="black"></line><line x1="210.5" y1="623" x2="260.5" y2="623" stroke-width="2" stroke="black"></line></svg>